<?xml version="1.0" encoding="utf-8"?>
<!-- Generator: Adobe Illustrator 26.3.1, SVG Export Plug-In . SVG Version: 6.00 Build 0)  -->
<svg version="1.1" id="Layer_1" xmlns="http://www.w3.org/2000/svg" xmlns:xlink="http://www.w3.org/1999/xlink" x="0px" y="0px"
	 viewBox="0 0 360 85.68" style="enable-background:new 0 0 360 85.68;" xml:space="preserve">
<style type="text/css">
	.st0{fill:#FFFFFF;}
	.st1{fill:none;stroke:#FFFFFF;stroke-width:1.0095;stroke-linecap:round;stroke-linejoin:round;stroke-miterlimit:10;}
</style>
<g>
	<path class="st0" d="M150.81,31.28h1.54l2.5,4.19c0.24,0.41,0.53,1.05,0.53,1.05h0.02c0,0-0.04-0.78-0.04-1.3v-3.94h1.5v7.51h-1.47
		l-2.56-4.15c-0.24-0.4-0.54-1.04-0.54-1.04h-0.02c0,0,0.04,0.79,0.04,1.31v3.87h-1.5V31.28z"/>
	<path class="st0" d="M160.08,31.28h1.57l2.65,7.51h-1.58l-0.5-1.6h-2.71l-0.49,1.6h-1.54L160.08,31.28z M159.86,36.02h1.98
		l-0.67-2.16c-0.13-0.4-0.3-1.15-0.3-1.15h-0.02c0,0-0.19,0.76-0.32,1.15L159.86,36.02z"/>
	<path class="st0" d="M163.6,31.28h6.04v1.28h-2.26v6.23h-1.52v-6.23h-2.26V31.28z"/>
	<path class="st0" d="M170.41,31.28h1.52v7.51h-1.52V31.28z"/>
	<path class="st0" d="M172.77,35.04c0-2.25,1.41-3.92,3.62-3.92s3.61,1.67,3.61,3.92s-1.4,3.91-3.61,3.91S172.77,37.29,172.77,35.04
		z M178.45,35.04c0-1.5-0.67-2.67-2.05-2.67s-2.08,1.17-2.08,2.67c0,1.49,0.7,2.66,2.08,2.66S178.45,36.54,178.45,35.04z"/>
	<path class="st0" d="M180.84,31.28h1.54l2.5,4.19c0.24,0.41,0.52,1.05,0.52,1.05h0.02c0,0-0.04-0.78-0.04-1.3v-3.94h1.5v7.51h-1.47
		l-2.56-4.15c-0.24-0.4-0.54-1.04-0.54-1.04h-0.02c0,0,0.04,0.79,0.04,1.31v3.87h-1.5V31.28z"/>
	<path class="st0" d="M190.11,31.28h1.58l2.65,7.51h-1.58l-0.5-1.6h-2.71l-0.49,1.6h-1.54L190.11,31.28z M189.89,36.02h1.98
		l-0.67-2.16c-0.13-0.4-0.3-1.15-0.3-1.15h-0.02c0,0-0.19,0.76-0.31,1.15L189.89,36.02z"/>
	<path class="st0" d="M194.96,31.28h1.52v6.24h3.53v1.27h-5.05V31.28z"/>
	<path class="st0" d="M202.04,31.28h1.6l1.32,4.35c0.15,0.49,0.33,1.2,0.33,1.2h0.02c0,0,0.18-0.71,0.33-1.2l1.31-4.35h1.54
		l-2.53,7.51h-1.39L202.04,31.28z"/>
	<path class="st0" d="M209.02,36.37v-5.09h1.52v5.09c0,0.78,0.39,1.32,1.41,1.32c0.97,0,1.42-0.57,1.42-1.34v-5.07h1.52v5.09
		c0,1.61-0.99,2.54-2.91,2.54C210.04,38.91,209.02,38,209.02,36.37z"/>
	<path class="st0" d="M215.98,31.28h1.52v6.24h3.53v1.27h-5.05V31.28z"/>
	<path class="st0" d="M221.85,31.28h1.54l2.5,4.19c0.24,0.41,0.52,1.05,0.52,1.05h0.02c0,0-0.04-0.78-0.04-1.3v-3.94h1.5v7.51h-1.47
		l-2.56-4.15c-0.24-0.4-0.54-1.04-0.54-1.04h-0.02c0,0,0.04,0.79,0.04,1.31v3.87h-1.5V31.28z"/>
	<path class="st0" d="M229.05,31.28h5.52v1.28h-4v1.68h3.51v1.25h-3.51v2.03h4.03v1.27h-5.55V31.28z"/>
	<path class="st0" d="M235.55,31.28H239c1.45,0,2.42,0.84,2.42,2.09c0,0.88-0.41,1.55-1.38,1.82v0.03c0.69,0.2,1.05,0.6,1.14,1.51
		c0.11,1.06,0.06,1.87,0.33,1.98v0.07h-1.46c-0.19-0.08-0.21-0.92-0.27-1.73c-0.06-0.82-0.53-1.28-1.47-1.28h-1.23v3.01h-1.52V31.28
		z M237.08,34.59h1.62c0.83,0,1.24-0.43,1.24-1.03c0-0.61-0.39-1.06-1.2-1.06h-1.66V34.59z"/>
	<path class="st0" d="M244.51,31.28h1.58l2.64,7.51h-1.58l-0.5-1.6h-2.71l-0.49,1.6h-1.54L244.51,31.28z M244.29,36.02h1.98
		l-0.67-2.16c-0.13-0.4-0.3-1.15-0.3-1.15h-0.02c0,0-0.19,0.76-0.32,1.15L244.29,36.02z"/>
	<path class="st0" d="M249.36,31.28h3.36c0.81,0,1.43,0.2,1.82,0.55c0.41,0.37,0.6,0.82,0.6,1.41c0,0.77-0.47,1.26-1.18,1.5v0.03
		c0.83,0.24,1.4,0.93,1.4,1.86c0,0.7-0.22,1.19-0.66,1.56c-0.43,0.38-1.09,0.6-1.89,0.6h-3.44V31.28z M252.53,34.3
		c0.66,0,1.11-0.32,1.11-0.9c0-0.56-0.41-0.88-1.08-0.88h-1.68v1.79H252.53z M250.88,37.52h1.75c0.74,0,1.18-0.41,1.18-1.02
		c0-0.71-0.52-1.08-1.22-1.08h-1.71V37.52z"/>
	<path class="st0" d="M256.26,31.28h1.52v7.51h-1.52V31.28z"/>
	<path class="st0" d="M258.95,31.28h1.52v6.24H264v1.27h-5.05V31.28z"/>
	<path class="st0" d="M264.83,31.28h1.52v7.51h-1.52V31.28z"/>
	<path class="st0" d="M267.12,31.28h6.04v1.28h-2.26v6.23h-1.52v-6.23h-2.26V31.28z"/>
	<path class="st0" d="M276,35.88l-2.5-4.61h1.66l1.13,2.23c0.23,0.45,0.49,1.07,0.49,1.07h0.02c0,0,0.28-0.62,0.5-1.07l1.11-2.23
		h1.6l-2.5,4.61v2.9H276V35.88z"/>
	<path class="st0" d="M150.81,41.78h2.93c2,0,3.3,1.62,3.3,3.83c0,1.22-0.41,2.29-1.2,2.95c-0.56,0.46-1.28,0.72-2.23,0.72h-2.8
		V41.78z M153.51,47.97c1.43,0,1.98-0.87,1.98-2.36c0-1.49-0.65-2.53-1.94-2.53h-1.22v4.89H153.51z"/>
	<path class="st0" d="M159.51,41.78h1.57l2.65,7.51h-1.58l-0.5-1.6h-2.71l-0.49,1.6h-1.54L159.51,41.78z M159.29,46.52h1.98
		l-0.67-2.16c-0.13-0.4-0.3-1.15-0.3-1.15h-0.02c0,0-0.19,0.76-0.32,1.15L159.29,46.52z"/>
	<path class="st0" d="M163.03,41.78h6.04v1.28h-2.26v6.23h-1.52v-6.23h-2.26V41.78z"/>
	<path class="st0" d="M170.96,41.78h1.58l2.65,7.51h-1.58l-0.5-1.6h-2.71l-0.49,1.6h-1.54L170.96,41.78z M170.74,46.52h1.98
		l-0.67-2.16c-0.13-0.4-0.3-1.15-0.3-1.15h-0.02c0,0-0.19,0.76-0.31,1.15L170.74,46.52z"/>
	<path class="st0" d="M175.81,41.78h3.36c0.81,0,1.43,0.2,1.82,0.55c0.41,0.37,0.6,0.82,0.6,1.41c0,0.77-0.47,1.26-1.18,1.5v0.03
		c0.83,0.24,1.4,0.93,1.4,1.86c0,0.7-0.22,1.19-0.66,1.56c-0.43,0.38-1.09,0.6-1.89,0.6h-3.44V41.78z M178.98,44.8
		c0.66,0,1.11-0.32,1.11-0.9c0-0.56-0.41-0.88-1.08-0.88h-1.68v1.79H178.98z M177.33,48.02h1.75c0.74,0,1.18-0.41,1.18-1.02
		c0-0.71-0.52-1.08-1.22-1.08h-1.71V48.02z"/>
	<path class="st0" d="M184.71,41.78h1.58l2.65,7.51h-1.58l-0.5-1.6h-2.71l-0.49,1.6h-1.54L184.71,41.78z M184.49,46.52h1.98
		l-0.67-2.16c-0.13-0.4-0.3-1.15-0.3-1.15h-0.02c0,0-0.19,0.76-0.31,1.15L184.49,46.52z"/>
	<path class="st0" d="M189.12,46.96h1.49c0.11,0.9,0.62,1.26,1.69,1.26c0.78,0,1.46-0.27,1.46-0.97c0-0.73-0.71-0.88-1.86-1.14
		c-1.34-0.3-2.57-0.66-2.57-2.22c0-1.48,1.21-2.25,2.88-2.25c1.69,0,2.78,0.83,2.9,2.34h-1.46c-0.08-0.76-0.67-1.13-1.45-1.13
		c-0.82,0-1.35,0.35-1.35,0.88c0,0.61,0.52,0.79,1.64,1.03c1.54,0.34,2.8,0.7,2.8,2.32c0,1.52-1.23,2.37-2.92,2.37
		C190.33,49.45,189.17,48.55,189.12,46.96z"/>
	<path class="st0" d="M196.2,41.78h5.52v1.28h-4v1.68h3.51v1.25h-3.51v2.03h4.03v1.27h-5.55V41.78z"/>
	<path class="st0" d="M150.93,52.28h1l3.42,5.22c0.25,0.39,0.55,0.96,0.55,0.96h0.02v-6.18h0.88v7.51h-0.97l-3.44-5.23
		c-0.24-0.37-0.56-0.93-0.56-0.93h-0.02v6.16h-0.88V52.28z"/>
	<path class="st0" d="M157.61,52.28h1.02l1.85,5.58c0.12,0.35,0.29,1.01,0.29,1.01h0.02c0,0,0.18-0.67,0.29-1.01l1.83-5.58h0.99
		l-2.63,7.51h-1.04L157.61,52.28z"/>
	<path class="st0" d="M164.71,52.28h2.73c2.26,0,3.33,1.53,3.33,3.78c0,2.25-1.14,3.73-3.4,3.73h-2.66V52.28z M167.33,58.95
		c1.76,0,2.47-1.13,2.47-2.9s-0.63-2.96-2.39-2.96h-1.75v5.86H167.33z"/>
</g>
<polyline class="st1" points="142.28,22.98 142.28,28.23 146.98,31.29 142.28,34.36 142.28,60.42 "/>
<g>
	<g>
		<path class="st0" d="M34.87,56.75h-5.89V34.01c0,0.03,0-4.29,4.31-5.73c3.89-1.25,6.49,1.26,6.49,1.26l19.41,20.99
			c0.97,0.6,1.37-0.02,1.36-0.6V28.29h5.94v22.58c-0.03,1.92-1.62,4.31-3.87,5.24c-2.31,0.9-4.85,0.89-7.85-1.64L36.61,34.72
			c-0.48-0.51-1.73-0.57-1.75,0.44V56.75L34.87,56.75z"/>
		<path class="st0" d="M70.31,28.29h5.94v20.4c-0.02,2.17,1.8,2.17,3.6,2.18h26.39c1.1-0.01,2.35-1.31,2.35-2.62
			c0.01-1.36-1.27-2.73-2.46-2.73H88.96c-2.95,0.11-9.09-2.62-9.11-8.4c0.02-7.06,5.81-8.65,8.46-8.83h48.59v6h-12.16v22.47h-5.89
			V34.29H89.07c-2.83-0.25-4.88,4.64-0.22,5.34h18.27c2.75-0.02,7.29,2.36,7.31,8.29c-0.02,6-3.54,8.84-7.31,8.83H80.13
			c-4.46,0.01-6.06-1.01-7.63-2.51c-1.46-1.44-1.71-2.25-2.18-5.24V28.29L70.31,28.29z"/>
	</g>
</g>
</svg>
